<svg id="Layer_1" data-name="Layer 1" xmlns="http://www.w3.org/2000/svg" viewBox="0 0 532.59 309.24"><defs><style>.cls-1{fill:#f5f5f5;}.cls-2{fill:#0a0808;}.cls-3{fill:#f62a52;}.cls-4{fill:#35dad5;}.cls-5{fill:#f8f8f8;}.cls-6{fill:#36d6d3;}.cls-7{fill:#1a96b7;}.cls-8{fill:#0f0304;}.cls-9{fill:#120304;}.cls-10{fill:#120305;}.cls-11{fill:#140305;}.cls-12{fill:#030b0c;}.cls-13{fill:#f52a51;}</style></defs><title>404</title><path class="cls-1" d="M320.2,646.23c-2.79-2.55-5.86-4.22-8.13-6.88-4.57-5.35-6.54-11.2-4.05-18,2.57-7.05,8-10.94,15.11-12.36,5.15-1,10.46-.87,15.14,1.66,3,1.65,4.29.51,6.06-1.68,23.12-28.59,51.33-51.09,83.33-68.91,7.1-4,14.7-7,22.11-10.43,6-2.72,12.4-2.6,18.66-2.37,6.89.25,13.28,9.79,13.58,19.22.23,7.21-1.06,14.28-2.18,21.35-.42,2.67.11,3.42,2.86,3.58,9.63.57,19.34.5,28.86,2.38,2.89.57,4.17-1.52,5.86-3,15.57-13.92,31.91-26.66,51.72-34.18,15.88-6,25.34-1,29.18,15.55a81.55,81.55,0,0,1,1.93,20.83c-.08,3.09.5,4.19,4,4.3,29.62,1,59.23,2.33,88.85,3.35,7.32.25,14.63.5,22,.88,9.79.52,18,4.37,25.22,10.72,5,4.39,10.2,8.6,13.81,14.31a3.32,3.32,0,0,0,3.76,1.74,2.75,2.75,0,0,1,.5,0c24,.25,33.66,5.2,41.82,32.23,6.77,22.4,11.62,45.57,9.71,69.39-.9,11.28-1.88,22.58-5.45,33.44-2.89,8.8-7.2,16.81-13.79,23.37-2.16,2.16-.6,3,.58,4.32a42.73,42.73,0,0,1,10.7,22.13c1.77,11.4-3.37,20.4-9.23,29.2-1.48,2.23-4.17,3.2-6.79,4a91.54,91.54,0,0,1-17.72,2.83c-51,4.37-102.22,3-153.31,4.82-28.62,1.05-57.25,3-85.87,2.32-25.92-.61-52.15.73-77.6-5.21-12.4-2.88-24.6-2.67-37-3.16-32.14-1.25-64.29.16-96.42-.87a59.66,59.66,0,0,1-20.41-4.35c-11.06-4.46-18.1-12.6-19.53-24.47-1.61-13.39,2.65-25,14.42-32.32,6.16-3.82,7.53-7.37,6.7-14.76-2.4-21.23-1.89-42.57,4-63.4.93-3.28.8-5.48-2.11-8.2-5.85-5.46-8.07-12.74-5.56-20.54,2.47-7.63,9.11-10,16.34-11.15C314.43,647.36,317.34,647.91,320.2,646.23ZM766,762.6c3.05-.15,6-.26,8.86-.44a9.84,9.84,0,0,0,6.41-2.45c5.24-5,9.72-10.37,11.79-17.57,2.75-9.56,3.43-19.3,3.6-29.15.45-26.82-1.9-53.19-12.49-78.26-3.73-8.83-9.46-14.79-19.79-14.63-4,.07-8,0-12,.16-1.95.09-3.3,0-4.53-2-3.74-6.15-8.92-11.2-14.18-16-4.53-4.12-9.79-7.43-16.36-7.75-24.11-1.2-48.21-2.5-72.32-3.72-18.13-.93-36.32-.07-54.41-2.1-3.17-.36-4.43-1.25-4.13-4.51.84-9.15.31-18.31-.09-27.46-.32-7.29-2.91-9.8-10.22-9.79a18.37,18.37,0,0,0-8.57,2.35c-18.92,9.94-36.84,21.36-53,35.45a5.43,5.43,0,0,1-4.39,1.69c-14.44-1.19-28.88-2.33-43.34-3.27-3.35-.21-3.78-1.2-2.82-4.24,2.87-9,5.7-18.1,6.95-27.56,1.39-10.5-4.94-15.77-15.06-12.15a158.23,158.23,0,0,0-20.38,9.38c-9.09,4.77-16.19,12.21-24.67,17.79-24.3,16-44.95,35.89-62.85,58.7-1.5,1.9-2.81,2.3-5,1.46a160.26,160.26,0,0,0-15.58-5.26c-5.79-1.52-9.53.28-10.7,4.37s1.13,7.62,6.51,9.62c4.49,1.67,9.06,3.13,13.61,4.69-2.7,5.43-5.38,10.41-7.64,15.56-1,2.25-2.19,3-4.53,2.79a111.39,111.39,0,0,0-12-.33,6.41,6.41,0,0,0-6.53,5.78c-.57,3.87,1.52,6.35,5,7.63a16,16,0,0,0,3.91.67c6.45.61,6.39.58,4.35,6.47-10,28.86-13.11,58-3.69,87.7.86,2.71.31,3.77-2.54,4.44-6.39,1.51-12.27,4.13-16.88,9.09-9.74,10.47-6.61,25.35,6.6,30.67,6.12,2.47,12.68,2.74,19.18,2.61,9-.17,18-1.49,26.94-.89,33.93,2.27,68,1.55,101.82,6.68,28.31,4.29,57.12,3.51,85.75,4,27.67.53,55.26-1.71,82.9-1.74,32.82,0,65.6-1.21,98.4-1.94,18.63-.41,37.26-.93,55.85-2.64,15.9-1.47,21.06-18.78,16-29.11-4.45-9-10.45-16.55-19.53-21.34C768.74,765.33,766.74,765,766,762.6Z" transform="translate(-277.64 -527.13)"/><path class="cls-2" d="M766,762.6c.71,2.42,2.71,2.73,4.22,3.52,9.08,4.79,15.08,12.3,19.53,21.34,5.1,10.33-.06,27.64-16,29.11-18.59,1.71-37.22,2.23-55.85,2.64-32.8.73-65.58,1.91-98.4,1.94-27.64,0-55.23,2.27-82.9,1.74-28.63-.54-57.44.24-85.75-4-33.83-5.13-67.89-4.41-101.82-6.68-8.92-.6-18,.72-26.94.89-6.5.13-13.06-.14-19.18-2.61-13.21-5.32-16.34-20.2-6.6-30.67,4.61-5,10.49-7.58,16.88-9.09,2.85-.67,3.4-1.73,2.54-4.44-9.42-29.67-6.32-58.84,3.69-87.7,2-5.89,2.1-5.86-4.35-6.47a16,16,0,0,1-3.91-.67c-3.51-1.28-5.6-3.76-5-7.63a6.41,6.41,0,0,1,6.53-5.78,111.39,111.39,0,0,1,12,.33c2.34.17,3.54-.54,4.53-2.79,2.26-5.15,4.94-10.13,7.64-15.56-4.55-1.56-9.12-3-13.61-4.69-5.38-2-7.67-5.52-6.51-9.62s4.91-5.89,10.7-4.37A160.26,160.26,0,0,1,343,626.55c2.24.84,3.55.44,5-1.46,17.9-22.81,38.55-42.73,62.85-58.7,8.48-5.58,15.58-13,24.67-17.79A158.23,158.23,0,0,1,456,539.22c10.12-3.62,16.45,1.65,15.06,12.15-1.25,9.46-4.08,18.52-6.95,27.56-1,3-.53,4,2.82,4.24,14.46.94,28.9,2.08,43.34,3.27a5.43,5.43,0,0,0,4.39-1.69c16.13-14.09,34.05-25.51,53-35.45a18.37,18.37,0,0,1,8.57-2.35c7.31,0,9.9,2.5,10.22,9.79.4,9.15.93,18.31.09,27.46-.3,3.26,1,4.15,4.13,4.51,18.09,2,36.28,1.17,54.41,2.1,24.11,1.22,48.21,2.52,72.32,3.72,6.57.32,11.83,3.63,16.36,7.75,5.26,4.78,10.44,9.83,14.18,16,1.23,2,2.58,2.09,4.53,2,4-.18,8-.09,12-.16,10.33-.16,16.06,5.8,19.79,14.63,10.59,25.07,12.94,51.44,12.49,78.26-.17,9.85-.85,19.59-3.6,29.15-2.07,7.2-6.55,12.61-11.79,17.57a9.84,9.84,0,0,1-6.41,2.45C772,762.34,769.08,762.45,766,762.6Zm7-14.23a1.29,1.29,0,0,0,2-.26c3.47-4.12,5-9.2,5.71-14.25,4.36-33,2.48-65.31-10.31-96.47-.79-1.94-1.88-3-4-3.14-3.8-.21-7.6-1-11.41,0-4.63-.09-9.44,1.19-13.73-1.71-4.16-8.18-11.26-13.89-17.33-20.46-2.62-2.84-6-3.87-9.86-4.05q-40.9-1.89-81.81-3.88c-3.63-.18-4.27.72-2.91,4.2a258,258,0,0,1,11.66,37.11c8.31,37.37,5.83,74.82.39,112.24-2.29,15.72-7.71,30.64-12.63,45.65-1.23,3.74-.06,4.22,3.23,4.13,37.28-1,74.56-1.74,111.84-2.75,9.14-.25,18.32-.37,27.38-1.88,5.87-1,7.9-4.54,5.64-10-.5-1.22-1.3-2.31-1.92-3.49-4.06-7.77-11.55-11.27-18.82-15-5.47-2.76-7.53-7.11-7.29-13A20.85,20.85,0,0,1,752,752c4-3.69,9-3.8,14-4A12.24,12.24,0,0,0,773.07,748.37ZM542.27,808c11.12.76,20.94.93,30.77.83,3.17,0,4.65-1,5.7-4.07a340.1,340.1,0,0,0,17-80.89,280.67,280.67,0,0,0-1.8-62.27c-2.81-20.55-10.54-39.87-15.12-60a5.3,5.3,0,0,0-2.29-3.14c-3.58-2.61-4.72-6.24-4.49-10.51.35-6.48,1.1-12.94.79-19.46-.27-5.71-.18-5.58-5.12-3.15-15.82,7.75-29.8,18.2-43.31,29.33a22.65,22.65,0,0,1-9.79,4.57c-7,1.6-13.94.22-20.87-.3-12.29-.9-24.57-1.87-36.82-3.12-8.84-.9-10.5-5.24-8.27-13.77,2-7.72,4.56-15.31,6.85-23,.38-1.26,1.18-2.82,0-3.73s-2.52.34-3.67.87A101.06,101.06,0,0,0,424,574.49c-4.49,4.21-9.65,7.61-14.78,11-18.42,12.37-33.4,28.44-47.87,45-1.27,1.46-2.35,2.91-1.54,5.36,1.75,5.35-.26,8.49-5.77,8.78-3,.15-4.52,1.59-5.76,3.87s-2.23,4.47-3.52,6.61c-1.77,2.92-2.28,5,2.07,6a6,6,0,0,1,4.77,6.28c-.17,3.44-2.55,5.32-5.74,6a14.76,14.76,0,0,1-4.94.41c-3.22-.4-4.73,1-6,3.87A150.74,150.74,0,0,0,326.44,706c-6.88,32.22.83,61.34,18.73,88.32a8.2,8.2,0,0,0,7.52,3.95c5.49,0,11-.08,16.47.37,20.09,1.68,40.21,2.54,60.35,3.35,3.83.15,6.07-.62,5.82-5-.22-3.84,1.59-7.11,3.87-10.06a74.89,74.89,0,0,1,23.52-19.79,13.92,13.92,0,0,1,7.65-1.94c5.33.32,7.56,4.55,4.78,9.17-1.51,2.53-4,3.88-6.42,5.39-6.92,4.33-13.88,8.64-18.08,16.06-3,5.36-2.25,8,3.69,9.51a51.83,51.83,0,0,0,13.34,1.61C493,806.42,518.23,810.47,542.27,808ZM593.2,603c.24,1,.36,1.57.54,2.16,8.43,26.72,15.58,53.65,16.51,82a339.09,339.09,0,0,1-10,94c-1.86,7.44-3.64,14.88-6.57,22-1.68,4.08-.55,5.23,3.66,4.66a63.67,63.67,0,0,1,10-.46c2.42.05,4-.61,5.26-2.83,5.53-9.62,8.2-20.29,11.1-30.81,5.5-20,7.24-40.56,8.57-61.18,2.37-36.74-4.06-72-18.12-105.87-.65-1.57-1.41-2.46-3.19-2.55C605.1,603.76,599.32,603.36,593.2,603Z" transform="translate(-277.64 -527.13)"/><path class="cls-3" d="M542.27,808c-24,2.46-49.27-1.59-74.59-1.12a51.83,51.83,0,0,1-13.34-1.61c-5.94-1.5-6.73-4.15-3.69-9.51,4.2-7.42,11.16-11.73,18.08-16.06,2.41-1.51,4.91-2.86,6.42-5.39,2.78-4.62.55-8.85-4.78-9.17a13.92,13.92,0,0,0-7.65,1.94,74.89,74.89,0,0,0-23.52,19.79c-2.28,3-4.09,6.22-3.87,10.06.25,4.43-2,5.2-5.82,5-20.14-.81-40.26-1.67-60.35-3.35-5.46-.45-11-.42-16.47-.37a8.2,8.2,0,0,1-7.52-3.95c-17.9-27-25.61-56.1-18.73-88.32a150.74,150.74,0,0,1,8.46-28.17c1.24-2.88,2.75-4.27,6-3.87a14.76,14.76,0,0,0,4.94-.41c3.19-.73,5.57-2.61,5.74-6a6,6,0,0,0-4.77-6.28c-4.35-1-3.84-3.11-2.07-6,1.29-2.14,2.33-4.42,3.52-6.61s2.73-3.72,5.76-3.87c5.51-.29,7.52-3.43,5.77-8.78-.81-2.45.27-3.9,1.54-5.36,14.47-16.59,29.45-32.66,47.87-45,5.13-3.44,10.29-6.84,14.78-11a101.06,101.06,0,0,1,27.82-18.24c1.15-.53,2.5-1.77,3.67-.87s.39,2.47,0,3.73c-2.29,7.65-4.83,15.24-6.85,23-2.23,8.53-.57,12.87,8.27,13.77,12.25,1.25,24.53,2.22,36.82,3.12,6.93.52,13.82,1.9,20.87.3a22.65,22.65,0,0,0,9.79-4.57c13.51-11.13,27.49-21.58,43.31-29.33,4.94-2.43,4.85-2.56,5.12,3.15.31,6.52-.44,13-.79,19.46-.23,4.27.91,7.9,4.49,10.51a5.3,5.3,0,0,1,2.29,3.14c4.58,20.12,12.31,39.44,15.12,60a280.67,280.67,0,0,1,1.8,62.27,340.1,340.1,0,0,1-17,80.89c-1,3.09-2.53,4-5.7,4.07C563.21,808.94,553.39,808.77,542.27,808ZM441,742.15c31.34-1.69,47-11.79,58-34.76,1.1-2.3,2.51-3,4.9-3.31,5.17-.77,7.22-5.85,4.21-10.16a21.59,21.59,0,0,0-4.24-4.19c-17.6-14-37-25.41-55.47-38.15-6.66-4.6-14.49-5.86-22.9-4-14.62,3.31-28.88,7.83-43.31,11.78-5.28,1.45-10.58,3.11-15.15,6.29-5.22,3.62-5.16,9.32.24,12.49a5.56,5.56,0,0,1,3.17,4.52C375.58,718.36,410.07,742.9,441,742.15Zm91.33-72.1c9.7-1.45,19.42-2.74,29.08-4.43a6.74,6.74,0,0,0,5.92-7.53c-.36-4-3.36-6-7.28-6.19-11.5-.54-22.36,3-33.36,5.5a5.53,5.53,0,0,0-4.56,5.34c-.06,3,1.76,4.92,4.36,6.11A12.41,12.41,0,0,0,532.34,670.05Zm-1.13,10.82c-4.07.38-7.21.67-8.38,4.11s.62,6.19,3.53,7.92c8.87,5.25,18.34,9.3,27.8,13.31a6.51,6.51,0,0,0,8.33-2.67c2-3.17,1.8-6.61-1.17-9C552.22,687.19,541.37,683.68,531.21,680.87Zm-65.13-46c-3.34.13-5.81.88-7.1,3.66-1.56,3.35.37,6,2.42,8a83.63,83.63,0,0,0,21,15c4,2.1,7.75,2.12,10.74-1.6,2.46-3.07,1.39-7.67-2.68-10.87a115.59,115.59,0,0,0-20.56-13A23,23,0,0,0,466.08,634.89ZM404.64,641c4.44-.39,10.26-.7,16-1.48,3.79-.5,6.58-2.83,6.74-6.87s-2.22-6.94-6.17-7.16c-8.82-.49-17.52,1.06-26.1,2.93-2.54.55-4.09,2.76-4.15,5.6-.06,2.66,1.5,4.23,3.6,5.54C397.3,641.21,400.3,641,404.64,641Z" transform="translate(-277.64 -527.13)"/><path class="cls-4" d="M752,752a20.85,20.85,0,0,0-3.11,9.36c-.24,5.91,1.82,10.26,7.29,13,7.27,3.68,14.76,7.18,18.82,15,.62,1.18,1.42,2.27,1.92,3.49,2.26,5.51.23,9.07-5.64,10-9.06,1.51-18.24,1.63-27.38,1.88-37.28,1-74.56,1.8-111.84,2.75-3.29.09-4.46-.39-3.23-4.13,4.92-15,10.34-29.93,12.63-45.65,5.44-37.42,7.92-74.87-.39-112.24a258,258,0,0,0-11.66-37.11c-1.36-3.48-.72-4.38,2.91-4.2q40.9,2,81.81,3.88c3.81.18,7.24,1.21,9.86,4.05,6.07,6.57,13.17,12.28,17.33,20.46-.91,5.29,2.51,9.48,3.64,14.25,3,12.71,6.34,25.39,7.76,38.39,1.16,10.52,2.34,21.17,1.95,31.7C754.23,728.59,754.2,740.4,752,752Zm-79.83-74c4.09-7,7.48-12.93,10.91-18.79a24.41,24.41,0,0,0,3.23-7.26c.53-2.55.65-5.13-1.58-6.9-2.52-2-5.08-.75-7.44.6-3.29,1.89-5.37,4.93-7.22,8.12-4.92,8.49-9.72,17.06-14.7,25.52-2,3.46-3.61,6.9-1.24,10.72,2.45,4,6.44,3.54,10.3,3.12,6.78-.75,13.55-1.64,20.34-2.31,1.7-.17,4-1.32,5.05.48.87,1.46-.9,3-1.74,4.37-4.28,6.94-8.63,13.84-13,20.73-1.33,2.12-2.77,4.21-3.05,6.76-.3,2.81.31,5.4,3,6.91a6.33,6.33,0,0,0,7.84-1,16.24,16.24,0,0,0,2.82-3.46q10.71-16.86,21.32-33.79c2.23-3.54,3.48-7.33,1.27-11.29-2.3-4.13-6.39-4.24-10.5-4.21A237.9,237.9,0,0,0,672.17,678Z" transform="translate(-277.64 -527.13)"/><path class="cls-5" d="M593.2,603c6.12.37,11.9.77,17.7,1.07,1.78.09,2.54,1,3.19,2.55,14.06,33.92,20.49,69.13,18.12,105.87-1.33,20.62-3.07,41.2-8.57,61.18-2.9,10.52-5.57,21.19-11.1,30.81-1.27,2.22-2.84,2.88-5.26,2.83a63.67,63.67,0,0,0-10,.46c-4.21.57-5.34-.58-3.66-4.66,2.93-7.09,4.71-14.53,6.57-22a339.09,339.09,0,0,0,10-94c-.93-28.3-8.08-55.23-16.51-82C593.56,604.56,593.44,604,593.2,603Z" transform="translate(-277.64 -527.13)"/><path class="cls-6" d="M755.05,634.27c3.81-1,7.61-.23,11.41,0,2.09.12,3.18,1.2,4,3.14,12.79,31.16,14.67,63.52,10.31,96.47-.67,5-2.24,10.13-5.71,14.25l-2,.26A12.24,12.24,0,0,1,766,748c.66-5.25,1.87-10.49,1.88-15.74,0-12.77.47-25.52-.67-38.32A255.92,255.92,0,0,0,755.05,634.27Z" transform="translate(-277.64 -527.13)"/><path class="cls-7" d="M755.05,634.27A255.92,255.92,0,0,1,767.19,694c1.14,12.8.71,25.55.67,38.32,0,5.25-1.22,10.49-1.88,15.74-5,.19-10,.3-14,4,2.2-11.6,2.23-23.41,2.67-35.1.39-10.53-.79-21.18-1.95-31.7-1.42-13-4.74-25.68-7.76-38.39-1.13-4.77-4.55-9-3.64-14.25C745.61,635.46,750.42,634.18,755.05,634.27Z" transform="translate(-277.64 -527.13)"/><path class="cls-7" d="M773.07,748.37l2-.26A1.29,1.29,0,0,1,773.07,748.37Z" transform="translate(-277.64 -527.13)"/><path class="cls-8" d="M441,742.15c-30.94.75-65.43-23.79-70.51-59.45a5.56,5.56,0,0,0-3.17-4.52c-5.4-3.17-5.46-8.87-.24-12.49,4.57-3.18,9.87-4.84,15.15-6.29,14.43-3.95,28.69-8.47,43.31-11.78,8.41-1.9,16.24-.64,22.9,4,18.47,12.74,37.87,24.14,55.47,38.15a21.59,21.59,0,0,1,4.24,4.19c3,4.31,1,9.39-4.21,10.16-2.39.35-3.8,1-4.9,3.31C488,730.36,472.35,740.46,441,742.15Zm2-14c18.23-.78,35.22-7.25,44-27.72,1.47-3.42,1.37-5.15-1.78-7.24Q461.41,677.26,437.77,661c-2-1.34-3.6-.91-5.61-.34-12.66,3.57-25.38,6.92-38,10.51-15.43,4.38-12.68,1.58-8.62,15.6C393.24,713.4,419.82,728.68,443.05,728.15Z" transform="translate(-277.64 -527.13)"/><path class="cls-9" d="M532.34,670.05a12.41,12.41,0,0,1-5.84-1.2c-2.6-1.19-4.42-3.09-4.36-6.11a5.53,5.53,0,0,1,4.56-5.34c11-2.5,21.86-6,33.36-5.5,3.92.18,6.92,2.15,7.28,6.19a6.74,6.74,0,0,1-5.92,7.53C551.76,667.31,542,668.6,532.34,670.05Z" transform="translate(-277.64 -527.13)"/><path class="cls-10" d="M531.21,680.87c10.16,2.81,21,6.32,30.11,13.67,3,2.39,3.22,5.83,1.17,9a6.51,6.51,0,0,1-8.33,2.67c-9.46-4-18.93-8.06-27.8-13.31-2.91-1.73-4.76-4.34-3.53-7.92S527.14,681.25,531.21,680.87Z" transform="translate(-277.64 -527.13)"/><path class="cls-10" d="M466.08,634.89a23,23,0,0,1,3.77,1.19,115.59,115.59,0,0,1,20.56,13c4.07,3.2,5.14,7.8,2.68,10.87-3,3.72-6.76,3.7-10.74,1.6a83.63,83.63,0,0,1-21-15c-2-2.09-4-4.69-2.42-8C460.27,635.77,462.74,635,466.08,634.89Z" transform="translate(-277.64 -527.13)"/><path class="cls-11" d="M404.64,641c-4.34,0-7.34.25-10.07-1.44-2.1-1.31-3.66-2.88-3.6-5.54.06-2.84,1.61-5.05,4.15-5.6,8.58-1.87,17.28-3.42,26.1-2.93,3.95.22,6.33,3.13,6.17,7.16s-2.95,6.37-6.74,6.87C414.9,640.26,409.08,640.57,404.64,641Z" transform="translate(-277.64 -527.13)"/><path class="cls-12" d="M672.17,678a237.9,237.9,0,0,1,25.58-1.65c4.11,0,8.2.08,10.5,4.21,2.21,4,1,7.75-1.27,11.29q-10.63,16.92-21.32,33.79a16.24,16.24,0,0,1-2.82,3.46,6.33,6.33,0,0,1-7.84,1c-2.64-1.51-3.25-4.1-3-6.91.28-2.55,1.72-4.64,3.05-6.76,4.35-6.89,8.7-13.79,13-20.73.84-1.36,2.61-2.91,1.74-4.37-1.07-1.8-3.35-.65-5.05-.48-6.79.67-13.56,1.56-20.34,2.31-3.86.42-7.85.85-10.3-3.12-2.37-3.82-.8-7.26,1.24-10.72,5-8.46,9.78-17,14.7-25.52,1.85-3.19,3.93-6.23,7.22-8.12,2.36-1.35,4.92-2.59,7.44-.6,2.23,1.77,2.11,4.35,1.58,6.9a24.41,24.41,0,0,1-3.23,7.26C679.65,665.07,676.26,671,672.17,678Z" transform="translate(-277.64 -527.13)"/><path class="cls-13" d="M443.05,728.15c-23.23.53-49.81-14.75-57.54-41.4-4.06-14-6.81-11.22,8.62-15.6,12.65-3.59,25.37-6.94,38-10.51,2-.57,3.65-1,5.61.34q23.69,16.21,47.52,32.21c3.15,2.09,3.25,3.82,1.78,7.24C478.27,720.9,461.28,727.37,443.05,728.15Z" transform="translate(-277.64 -527.13)"/></svg>